<svg xmlns="http://www.w3.org/2000/svg" viewBox="0 0 128 128">
  <defs>
    <linearGradient id="bg" x1="0" y1="0" x2="1" y2="1">
      <stop offset="0%" stop-color="#F59E0B"/>
      <stop offset="100%" stop-color="#D97706"/>
    </linearGradient>
    <linearGradient id="symbolGrad" x1="0" y1="0" x2="0" y2="1">
      <stop offset="0%" stop-color="#FFFFFF"/>
      <stop offset="100%" stop-color="#FEF3C7"/>
    </linearGradient>
  </defs>
  <!-- Background rounded rectangle -->
  <rect x="4" y="4" width="120" height="120" rx="20" ry="20" fill="url(#bg)"/>
  <!-- Subtle inner shadow -->
  <rect x="4" y="4" width="120" height="120" rx="20" ry="20" fill="none" stroke="#B45309" stroke-width="1" opacity="0.3"/>
  <!-- $ symbol as path for crisp rendering at all sizes -->
  <path d="M 70.5 22 L 70.5 30.5 C 79.5 31.5 86.5 35 91.5 40.5 L 82 50 C 78.5 46.5 74 44 70.5 43.5 L 70.5 62 C 85 65 96 71 96 84 C 96 97 85.5 105 70.5 106.5 L 70.5 114 L 57.5 114 L 57.5 106 C 47 104.5 38.5 99.5 33 93 L 43.5 83 C 48 88 53 91.5 57.5 92.5 L 57.5 72 C 43 69 32 63.5 32 50 C 32 37 43 29 57.5 27.5 L 57.5 22 Z M 57.5 43 C 51 44 46.5 47 46.5 51.5 C 46.5 56 50 58.5 57.5 60.5 Z M 70.5 75.5 L 70.5 93 C 77 92 81.5 88.5 81.5 83.5 C 81.5 78.5 78 76.5 70.5 75.5 Z" fill="url(#symbolGrad)"/>
</svg>
